<mxfile host="65bd71144e">
    <diagram id="oNJYSzvw70os4x4uFzqT" name="Page-1">
        <mxGraphModel dx="1302" dy="585" grid="0" gridSize="10" guides="1" tooltips="1" connect="1" arrows="1" fold="1" page="1" pageScale="1" pageWidth="827" pageHeight="1169" background="none" math="0" shadow="0">
            <root>
                <mxCell id="0"/>
                <mxCell id="1" parent="0"/>
                <mxCell id="2" value="&lt;div style=&quot;text-align: left&quot;&gt;&lt;b style=&quot;font-size: 19px; font-family: &amp;quot;roboto slab&amp;quot;, serif;&quot;&gt;Genre: Dystopique / Futuristique&lt;/b&gt;&lt;/div&gt;&lt;font&gt;&lt;div style=&quot;text-align: left&quot;&gt;&lt;span style=&quot;font-family: &amp;quot;roboto slab&amp;quot; , serif ; font-size: 19px ; font-weight: bolder&quot;&gt;Inspiration: Cyberpunk 2077&lt;/span&gt;&lt;/div&gt;&lt;span style=&quot;box-sizing: border-box ; font-family: &amp;quot;roboto slab&amp;quot; , serif ; font-size: 19px&quot;&gt;&lt;div style=&quot;text-align: left&quot;&gt;&lt;span style=&quot;font-weight: bolder ; box-sizing: border-box&quot;&gt;Nom:&lt;/span&gt;&lt;font face=&quot;roboto slab, serif&quot; style=&quot;font-size: 12px&quot;&gt;&lt;span style=&quot;font-size: 19px&quot;&gt;&amp;nbsp;&lt;b&gt;Un long trajet&lt;/b&gt;&lt;/span&gt;&lt;/font&gt;&lt;/div&gt;&lt;/span&gt;&lt;b style=&quot;font-family: &amp;quot;roboto slab&amp;quot; , serif ; font-size: 19px&quot;&gt;&lt;div style=&quot;text-align: left&quot;&gt;&lt;b&gt;Fond de l'interface:&amp;nbsp;&lt;/b&gt;&lt;b&gt;#254457 / #&lt;/b&gt;&lt;b&gt;275C75&lt;/b&gt;&lt;/div&gt;&lt;/b&gt;&lt;b style=&quot;font-family: &amp;quot;roboto slab&amp;quot; , serif ; font-size: 19px&quot;&gt;&lt;div style=&quot;text-align: left&quot;&gt;&lt;b&gt;Boutons(fond et texte): #&lt;/b&gt;&lt;b&gt;3D5A80 / #&lt;/b&gt;&lt;b&gt;8D99AE&lt;/b&gt;&lt;/div&gt;&lt;/b&gt;&lt;b style=&quot;font-family: &amp;quot;roboto slab&amp;quot; , serif ; font-size: 19px&quot;&gt;&lt;div style=&quot;text-align: left&quot;&gt;&lt;b&gt;État de survol(fond et texte): #&lt;/b&gt;&lt;b&gt;98C1D9 / #E&lt;/b&gt;&lt;b&gt;5E5E5&lt;/b&gt;&lt;/div&gt;&lt;/b&gt;&lt;/font&gt;" style="text;html=1;strokeColor=none;fillColor=none;align=center;verticalAlign=middle;whiteSpace=wrap;rounded=0;spacing=2;spacingRight=0;spacingLeft=0;fontColor=default;" parent="1" vertex="1">
                    <mxGeometry x="10" width="360" height="200" as="geometry"/>
                </mxCell>
                <mxCell id="5" style="edgeStyle=none;html=1;exitX=0.5;exitY=1;exitDx=0;exitDy=0;entryX=0.5;entryY=0;entryDx=0;entryDy=0;fontSize=15;fontColor=default;" parent="1" source="3" target="4" edge="1">
                    <mxGeometry relative="1" as="geometry"/>
                </mxCell>
                <mxCell id="3" value="Réveil" style="rounded=1;whiteSpace=wrap;html=1;labelBackgroundColor=none;fontSize=15;fontColor=default;spacing=6;spacingTop=0;fillColor=#647687;strokeColor=#314354;" parent="1" vertex="1">
                    <mxGeometry x="354" y="230" width="120" height="60" as="geometry"/>
                </mxCell>
                <mxCell id="7" style="edgeStyle=none;html=1;exitX=0;exitY=0.5;exitDx=0;exitDy=0;entryX=1;entryY=0.5;entryDx=0;entryDy=0;fontSize=15;fontColor=default;startArrow=none;" parent="1" source="85" target="6" edge="1">
                    <mxGeometry relative="1" as="geometry"/>
                </mxCell>
                <mxCell id="14" style="edgeStyle=none;html=1;exitX=0.5;exitY=1;exitDx=0;exitDy=0;entryX=0.5;entryY=0;entryDx=0;entryDy=0;fontSize=15;fontColor=default;" parent="1" source="4" edge="1">
                    <mxGeometry relative="1" as="geometry">
                        <mxPoint x="414" y="585" as="targetPoint"/>
                    </mxGeometry>
                </mxCell>
                <mxCell id="15" value="Partir en mission" style="edgeLabel;html=1;align=center;verticalAlign=middle;resizable=0;points=[];fontSize=15;fontColor=default;labelBackgroundColor=default;" parent="14" vertex="1" connectable="0">
                    <mxGeometry x="-0.2672" y="3" relative="1" as="geometry">
                        <mxPoint as="offset"/>
                    </mxGeometry>
                </mxCell>
                <mxCell id="4" value="Tuer le dictateur" style="rhombus;whiteSpace=wrap;html=1;labelBackgroundColor=none;fontSize=15;fontColor=default;fillColor=#1ba1e2;strokeColor=#006EAF;" parent="1" vertex="1">
                    <mxGeometry x="334" y="340" width="160" height="160" as="geometry"/>
                </mxCell>
                <mxCell id="9" style="edgeStyle=none;html=1;fontSize=15;fontColor=default;entryX=0;entryY=0.5;entryDx=0;entryDy=0;exitX=0;exitY=0.593;exitDx=0;exitDy=0;exitPerimeter=0;" parent="1" source="6" target="3" edge="1">
                    <mxGeometry relative="1" as="geometry">
                        <mxPoint x="210" y="270" as="targetPoint"/>
                        <Array as="points">
                            <mxPoint x="10" y="426"/>
                            <mxPoint x="10" y="260"/>
                        </Array>
                        <mxPoint x="15" y="420" as="sourcePoint"/>
                    </mxGeometry>
                </mxCell>
                <mxCell id="6" value="Fumer tue" style="rounded=1;whiteSpace=wrap;html=1;labelBackgroundColor=none;fontSize=15;fontColor=default;fillColor=#a20025;strokeColor=#6F0000;" parent="1" vertex="1">
                    <mxGeometry x="27" y="390" width="170" height="60" as="geometry"/>
                </mxCell>
                <mxCell id="12" style="edgeStyle=none;html=1;exitX=1;exitY=0.5;exitDx=0;exitDy=0;entryX=1;entryY=0.5;entryDx=0;entryDy=0;fontSize=15;fontColor=default;" parent="1" source="10" target="3" edge="1">
                    <mxGeometry relative="1" as="geometry">
                        <Array as="points">
                            <mxPoint x="802" y="420"/>
                            <mxPoint x="802" y="349"/>
                            <mxPoint x="802" y="260"/>
                        </Array>
                    </mxGeometry>
                </mxCell>
                <mxCell id="10" value="Court-circuit" style="rounded=1;whiteSpace=wrap;html=1;labelBackgroundColor=none;fontSize=15;fillColor=#a20025;strokeColor=#6F0000;fontColor=default;" parent="1" vertex="1">
                    <mxGeometry x="650" y="390" width="132" height="60" as="geometry"/>
                </mxCell>
                <mxCell id="26" style="edgeStyle=none;html=1;exitX=0;exitY=0.5;exitDx=0;exitDy=0;entryX=1;entryY=0.5;entryDx=0;entryDy=0;fontSize=15;fontColor=default;" parent="1" source="23" target="24" edge="1">
                    <mxGeometry relative="1" as="geometry"/>
                </mxCell>
                <mxCell id="28" value="Perdre son temps" style="edgeLabel;html=1;align=center;verticalAlign=middle;resizable=0;points=[];fontSize=15;fontColor=default;labelBackgroundColor=default;" parent="26" vertex="1" connectable="0">
                    <mxGeometry x="0.1989" relative="1" as="geometry">
                        <mxPoint x="18" as="offset"/>
                    </mxGeometry>
                </mxCell>
                <mxCell id="27" style="edgeStyle=none;html=1;exitX=1;exitY=0.5;exitDx=0;exitDy=0;entryX=0;entryY=0.5;entryDx=0;entryDy=0;fontSize=15;fontColor=default;" parent="1" source="23" target="25" edge="1">
                    <mxGeometry relative="1" as="geometry"/>
                </mxCell>
                <mxCell id="35" value="Intervenir dans&lt;br&gt;une bagarre" style="edgeLabel;html=1;align=center;verticalAlign=middle;resizable=0;points=[];fontSize=15;fontColor=default;labelBackgroundColor=default;" parent="27" vertex="1" connectable="0">
                    <mxGeometry x="-0.1847" y="2" relative="1" as="geometry">
                        <mxPoint as="offset"/>
                    </mxGeometry>
                </mxCell>
                <mxCell id="31" style="edgeStyle=none;html=1;exitX=0.5;exitY=1;exitDx=0;exitDy=0;entryX=0.5;entryY=0;entryDx=0;entryDy=0;fontSize=15;fontColor=default;" parent="1" source="23" target="30" edge="1">
                    <mxGeometry relative="1" as="geometry"/>
                </mxCell>
                <mxCell id="32" value="Aller parler à&lt;br&gt;un inconnu" style="edgeLabel;html=1;align=center;verticalAlign=middle;resizable=0;points=[];fontSize=15;fontColor=default;labelBackgroundColor=default;" parent="31" vertex="1" connectable="0">
                    <mxGeometry x="-0.1563" y="-1" relative="1" as="geometry">
                        <mxPoint as="offset"/>
                    </mxGeometry>
                </mxCell>
                <mxCell id="23" value="Tu prends &lt;br&gt;une marche" style="rhombus;whiteSpace=wrap;html=1;labelBackgroundColor=none;fontSize=15;fontColor=default;fillColor=#1ba1e2;strokeColor=#006EAF;" parent="1" vertex="1">
                    <mxGeometry x="333" y="585" width="160" height="160" as="geometry"/>
                </mxCell>
                <mxCell id="56" style="edgeStyle=none;html=1;exitX=0.5;exitY=1;exitDx=0;exitDy=0;entryX=0;entryY=0;entryDx=0;entryDy=0;fontSize=15;fontColor=default;" parent="1" source="24" target="30" edge="1">
                    <mxGeometry relative="1" as="geometry">
                        <Array as="points">
                            <mxPoint x="180" y="700"/>
                        </Array>
                    </mxGeometry>
                </mxCell>
                <mxCell id="24" value="Tu rencontres un&lt;br&gt;marchand&lt;br&gt;(Fusil)" style="rounded=1;whiteSpace=wrap;html=1;labelBackgroundColor=none;fontSize=15;fontColor=default;fillColor=#d80073;strokeColor=#A50040;" parent="1" vertex="1">
                    <mxGeometry x="27" y="635" width="170" height="65" as="geometry"/>
                </mxCell>
                <mxCell id="53" style="edgeStyle=none;html=1;exitX=0.5;exitY=1;exitDx=0;exitDy=0;fontSize=15;fontColor=default;entryX=1;entryY=0;entryDx=0;entryDy=0;" parent="1" source="25" target="30" edge="1">
                    <mxGeometry relative="1" as="geometry">
                        <mxPoint x="570" y="790" as="targetPoint"/>
                        <Array as="points">
                            <mxPoint x="650" y="695"/>
                        </Array>
                    </mxGeometry>
                </mxCell>
                <mxCell id="25" value="Manque de force&lt;br&gt;(affaibli)" style="rounded=1;whiteSpace=wrap;html=1;labelBackgroundColor=none;fontSize=15;fontColor=default;fillColor=#d80073;strokeColor=#A50040;" parent="1" vertex="1">
                    <mxGeometry x="630" y="635" width="160" height="60" as="geometry"/>
                </mxCell>
                <mxCell id="38" style="edgeStyle=none;html=1;exitX=1;exitY=0.5;exitDx=0;exitDy=0;entryX=0;entryY=0.5;entryDx=0;entryDy=0;fontSize=15;fontColor=default;" parent="1" source="30" target="37" edge="1">
                    <mxGeometry relative="1" as="geometry"/>
                </mxCell>
                <mxCell id="39" value="Suivre ses directions" style="edgeLabel;html=1;align=center;verticalAlign=middle;resizable=0;points=[];fontSize=15;fontColor=default;labelBackgroundColor=default;" parent="38" vertex="1" connectable="0">
                    <mxGeometry x="-0.2516" y="3" relative="1" as="geometry">
                        <mxPoint x="20" y="3" as="offset"/>
                    </mxGeometry>
                </mxCell>
                <mxCell id="41" style="edgeStyle=none;html=1;exitX=0.5;exitY=1;exitDx=0;exitDy=0;entryX=0.5;entryY=0;entryDx=0;entryDy=0;fontSize=15;fontColor=default;" parent="1" source="30" target="40" edge="1">
                    <mxGeometry relative="1" as="geometry"/>
                </mxCell>
                <mxCell id="42" value="Suivre son chemin" style="edgeLabel;html=1;align=center;verticalAlign=middle;resizable=0;points=[];fontSize=15;fontColor=default;labelBackgroundColor=default;" parent="41" vertex="1" connectable="0">
                    <mxGeometry x="-0.2114" y="2" relative="1" as="geometry">
                        <mxPoint as="offset"/>
                    </mxGeometry>
                </mxCell>
                <mxCell id="30" value="Te donne des&lt;br&gt;directions" style="rounded=1;whiteSpace=wrap;html=1;labelBackgroundColor=none;fontSize=15;fontColor=default;fillColor=#60a917;strokeColor=#2D7600;" parent="1" vertex="1">
                    <mxGeometry x="354" y="830" width="120" height="60" as="geometry"/>
                </mxCell>
                <mxCell id="54" style="edgeStyle=none;html=1;fontSize=15;fontColor=default;exitX=1;exitY=0.5;exitDx=0;exitDy=0;" parent="1" source="37" edge="1">
                    <mxGeometry relative="1" as="geometry">
                        <mxPoint x="803" y="382" as="targetPoint"/>
                        <mxPoint x="870" y="846" as="sourcePoint"/>
                        <Array as="points">
                            <mxPoint x="803" y="860"/>
                        </Array>
                    </mxGeometry>
                </mxCell>
                <mxCell id="37" value="Vous devez suivre&lt;br&gt;votre chemin" style="rounded=1;whiteSpace=wrap;html=1;labelBackgroundColor=none;fontSize=15;fontColor=default;fillColor=#a20025;strokeColor=#6F0000;" parent="1" vertex="1">
                    <mxGeometry x="630" y="830" width="160" height="60" as="geometry"/>
                </mxCell>
                <mxCell id="45" style="edgeStyle=none;html=1;exitX=0.5;exitY=1;exitDx=0;exitDy=0;entryX=0.5;entryY=0;entryDx=0;entryDy=0;fontSize=15;fontColor=default;labelBackgroundColor=none;" parent="1" source="40" target="44" edge="1">
                    <mxGeometry relative="1" as="geometry"/>
                </mxCell>
                <mxCell id="40" value="Un homme arrive derrière toi" style="rounded=1;whiteSpace=wrap;html=1;labelBackgroundColor=none;fontSize=15;fontColor=default;fillColor=#60a917;strokeColor=#2D7600;spacingLeft=2;spacingRight=2;" parent="1" vertex="1">
                    <mxGeometry x="354" y="940" width="120" height="60" as="geometry"/>
                </mxCell>
                <mxCell id="46" style="edgeStyle=none;html=1;exitX=0.5;exitY=1;exitDx=0;exitDy=0;fontSize=15;fontColor=default;labelBackgroundColor=none;" parent="1" source="44" edge="1">
                    <mxGeometry relative="1" as="geometry">
                        <mxPoint x="413" y="1290" as="targetPoint"/>
                    </mxGeometry>
                </mxCell>
                <mxCell id="50" value="Oui" style="edgeLabel;html=1;align=center;verticalAlign=middle;resizable=0;points=[];fontSize=15;fontColor=#FF00FF;labelBackgroundColor=default;" parent="46" vertex="1" connectable="0">
                    <mxGeometry x="-0.2714" relative="1" as="geometry">
                        <mxPoint y="1" as="offset"/>
                    </mxGeometry>
                </mxCell>
                <mxCell id="48" style="edgeStyle=none;html=1;exitX=1;exitY=0.5;exitDx=0;exitDy=0;entryX=0;entryY=0.5;entryDx=0;entryDy=0;fontSize=15;fontColor=default;labelBackgroundColor=none;" parent="1" source="44" target="47" edge="1">
                    <mxGeometry relative="1" as="geometry"/>
                </mxCell>
                <mxCell id="49" value="&lt;font color=&quot;#ff00ff&quot;&gt;Affaibli&lt;/font&gt;" style="edgeLabel;html=1;align=center;verticalAlign=middle;resizable=0;points=[];fontSize=15;fontColor=default;labelBackgroundColor=default;" parent="48" vertex="1" connectable="0">
                    <mxGeometry x="-0.0682" y="-1" relative="1" as="geometry">
                        <mxPoint as="offset"/>
                    </mxGeometry>
                </mxCell>
                <mxCell id="58" style="edgeStyle=none;html=1;exitX=0;exitY=0.5;exitDx=0;exitDy=0;entryX=1;entryY=0.5;entryDx=0;entryDy=0;fontSize=15;fontColor=default;labelBackgroundColor=none;" parent="1" source="44" target="57" edge="1">
                    <mxGeometry relative="1" as="geometry"/>
                </mxCell>
                <mxCell id="59" value="&lt;font color=&quot;#ff00ff&quot;&gt;Non&lt;/font&gt;" style="edgeLabel;html=1;align=center;verticalAlign=middle;resizable=0;points=[];fontSize=15;fontColor=default;labelBackgroundColor=default;" parent="58" vertex="1" connectable="0">
                    <mxGeometry x="-0.0362" y="3" relative="1" as="geometry">
                        <mxPoint as="offset"/>
                    </mxGeometry>
                </mxCell>
                <mxCell id="44" value="&lt;font color=&quot;#ff00ff&quot;&gt;Avez vous un&lt;br&gt;fusil?&lt;/font&gt;" style="rhombus;whiteSpace=wrap;html=1;labelBackgroundColor=none;fontSize=15;fontColor=default;fillColor=#1ba1e2;strokeColor=#006EAF;" parent="1" vertex="1">
                    <mxGeometry x="333" y="1050" width="160" height="160" as="geometry"/>
                </mxCell>
                <mxCell id="55" style="edgeStyle=none;html=1;exitX=1;exitY=0.5;exitDx=0;exitDy=0;fontSize=15;fontColor=default;" parent="1" source="47" edge="1">
                    <mxGeometry relative="1" as="geometry">
                        <mxPoint x="803" y="823" as="targetPoint"/>
                        <Array as="points">
                            <mxPoint x="809" y="1130"/>
                        </Array>
                    </mxGeometry>
                </mxCell>
                <mxCell id="47" value="Vous mourrez tiré par l'inconnu" style="rounded=1;whiteSpace=wrap;html=1;labelBackgroundColor=none;fontSize=15;fontColor=default;fillColor=#a20025;strokeColor=#6F0000;" parent="1" vertex="1">
                    <mxGeometry x="630" y="1100" width="160" height="60" as="geometry"/>
                </mxCell>
                <mxCell id="62" style="edgeStyle=none;html=1;exitX=0.5;exitY=1;exitDx=0;exitDy=0;entryX=0.5;entryY=0;entryDx=0;entryDy=0;fontSize=15;fontColor=default;labelBackgroundColor=none;" parent="1" source="52" target="61" edge="1">
                    <mxGeometry relative="1" as="geometry"/>
                </mxCell>
                <mxCell id="52" value="&lt;span&gt;Vous le tirez et vous mettez en place&lt;/span&gt;" style="rounded=1;whiteSpace=wrap;html=1;labelBackgroundColor=none;fontSize=15;fontColor=default;fillColor=#60a917;strokeColor=#2D7600;" parent="1" vertex="1">
                    <mxGeometry x="353" y="1290" width="120" height="60" as="geometry"/>
                </mxCell>
                <mxCell id="60" style="edgeStyle=none;html=1;exitX=0;exitY=0.5;exitDx=0;exitDy=0;fontSize=15;fontColor=default;" parent="1" source="57" edge="1">
                    <mxGeometry relative="1" as="geometry">
                        <mxPoint x="10" y="406" as="targetPoint"/>
                        <Array as="points">
                            <mxPoint x="17" y="1135"/>
                        </Array>
                    </mxGeometry>
                </mxCell>
                <mxCell id="57" value="Vous mourrez après l'avoir désarmé" style="rounded=1;whiteSpace=wrap;html=1;labelBackgroundColor=none;fontSize=15;fontColor=default;fillColor=#a20025;strokeColor=#6F0000;" parent="1" vertex="1">
                    <mxGeometry x="64" y="1100" width="160" height="60" as="geometry"/>
                </mxCell>
                <mxCell id="66" style="edgeStyle=none;html=1;exitX=0;exitY=0.5;exitDx=0;exitDy=0;entryX=1;entryY=0.5;entryDx=0;entryDy=0;fontSize=15;fontColor=default;labelBackgroundColor=none;" parent="1" source="61" target="63" edge="1">
                    <mxGeometry relative="1" as="geometry"/>
                </mxCell>
                <mxCell id="69" value="Sauter dans le vide" style="edgeLabel;html=1;align=center;verticalAlign=middle;resizable=0;points=[];fontSize=15;fontColor=default;labelBackgroundColor=default;" parent="66" vertex="1" connectable="0">
                    <mxGeometry x="-0.085" y="-2" relative="1" as="geometry">
                        <mxPoint as="offset"/>
                    </mxGeometry>
                </mxCell>
                <mxCell id="67" style="edgeStyle=none;html=1;exitX=1;exitY=0.5;exitDx=0;exitDy=0;entryX=0;entryY=0.5;entryDx=0;entryDy=0;fontSize=15;fontColor=default;labelBackgroundColor=none;" parent="1" source="61" target="64" edge="1">
                    <mxGeometry relative="1" as="geometry"/>
                </mxCell>
                <mxCell id="72" value="Ne pas tirer" style="edgeLabel;html=1;align=center;verticalAlign=middle;resizable=0;points=[];fontSize=15;fontColor=default;labelBackgroundColor=default;" parent="67" vertex="1" connectable="0">
                    <mxGeometry x="-0.1301" y="2" relative="1" as="geometry">
                        <mxPoint as="offset"/>
                    </mxGeometry>
                </mxCell>
                <mxCell id="68" style="edgeStyle=none;html=1;exitX=0.5;exitY=1;exitDx=0;exitDy=0;entryX=0.5;entryY=0;entryDx=0;entryDy=0;fontSize=15;fontColor=default;" parent="1" source="61" target="65" edge="1">
                    <mxGeometry relative="1" as="geometry"/>
                </mxCell>
                <mxCell id="73" value="Tirer" style="edgeLabel;html=1;align=center;verticalAlign=middle;resizable=0;points=[];fontSize=15;fontColor=default;labelBackgroundColor=default;" parent="68" vertex="1" connectable="0">
                    <mxGeometry x="-0.1524" relative="1" as="geometry">
                        <mxPoint as="offset"/>
                    </mxGeometry>
                </mxCell>
                <mxCell id="61" value="Qu'allez-vous &lt;br&gt;faire?" style="rhombus;whiteSpace=wrap;html=1;labelBackgroundColor=none;fontSize=15;fontColor=default;fillColor=#1ba1e2;strokeColor=#006EAF;" parent="1" vertex="1">
                    <mxGeometry x="333" y="1410" width="160" height="160" as="geometry"/>
                </mxCell>
                <mxCell id="94" style="edgeStyle=none;html=1;exitX=0;exitY=0.25;exitDx=0;exitDy=0;labelBackgroundColor=none;fontColor=default;entryX=0.5;entryY=0;entryDx=0;entryDy=0;" edge="1" parent="1" source="63" target="23">
                    <mxGeometry relative="1" as="geometry">
                        <mxPoint x="23" y="550" as="targetPoint"/>
                        <Array as="points">
                            <mxPoint x="23" y="611"/>
                        </Array>
                    </mxGeometry>
                </mxCell>
                <mxCell id="63" value="Une sorte de flashback apparaît" style="rounded=1;whiteSpace=wrap;html=1;labelBackgroundColor=none;fontSize=15;fontColor=#000000;fillColor=#fa6800;strokeColor=#C73500;" parent="1" vertex="1">
                    <mxGeometry x="32" y="1465" width="160" height="60" as="geometry"/>
                </mxCell>
                <mxCell id="64" value="Parfois, la violence n'est pas le bon choix" style="rounded=1;whiteSpace=wrap;html=1;labelBackgroundColor=none;fontSize=15;fontColor=default;fillColor=#60a917;strokeColor=#2D7600;" parent="1" vertex="1">
                    <mxGeometry x="650" y="1460" width="160" height="60" as="geometry"/>
                </mxCell>
                <mxCell id="65" value="Vous venez de renverser le gouvernement" style="rounded=1;whiteSpace=wrap;html=1;labelBackgroundColor=none;fontSize=15;fontColor=default;fillColor=#60a917;strokeColor=#2D7600;" parent="1" vertex="1">
                    <mxGeometry x="333" y="1630" width="160" height="60" as="geometry"/>
                </mxCell>
                <mxCell id="75" value="" style="ellipse;whiteSpace=wrap;html=1;labelBackgroundColor=none;fontSize=15;fontColor=default;fillColor=#60a917;strokeColor=#2D7600;" parent="1" vertex="1">
                    <mxGeometry x="580" y="10" width="60" height="40" as="geometry"/>
                </mxCell>
                <mxCell id="76" value="" style="ellipse;whiteSpace=wrap;html=1;labelBackgroundColor=none;fontSize=15;fontColor=default;fillColor=#a20025;strokeColor=#6F0000;" parent="1" vertex="1">
                    <mxGeometry x="580" y="70" width="60" height="40" as="geometry"/>
                </mxCell>
                <mxCell id="77" value="" style="ellipse;whiteSpace=wrap;html=1;labelBackgroundColor=none;fontSize=15;fontColor=default;fillColor=#d80073;strokeColor=#A50040;" parent="1" vertex="1">
                    <mxGeometry x="580" y="130" width="60" height="40" as="geometry"/>
                </mxCell>
                <mxCell id="78" value="Bon choix" style="text;html=1;strokeColor=none;fillColor=none;align=center;verticalAlign=middle;whiteSpace=wrap;rounded=0;labelBackgroundColor=none;fontSize=15;fontColor=default;" parent="1" vertex="1">
                    <mxGeometry x="660" y="15" width="140" height="30" as="geometry"/>
                </mxCell>
                <mxCell id="79" value="Mauvais choix" style="text;html=1;strokeColor=none;fillColor=none;align=center;verticalAlign=middle;whiteSpace=wrap;rounded=0;labelBackgroundColor=none;fontSize=15;fontColor=default;" parent="1" vertex="1">
                    <mxGeometry x="660" y="75" width="140" height="30" as="geometry"/>
                </mxCell>
                <mxCell id="80" value="Nouvelle possibilité" style="text;html=1;strokeColor=none;fillColor=none;align=center;verticalAlign=middle;whiteSpace=wrap;rounded=0;labelBackgroundColor=none;fontSize=15;fontColor=default;" parent="1" vertex="1">
                    <mxGeometry x="660" y="135" width="140" height="30" as="geometry"/>
                </mxCell>
                <mxCell id="11" value="" style="edgeStyle=none;html=1;exitX=1;exitY=0.5;exitDx=0;exitDy=0;entryX=0;entryY=0.5;entryDx=0;entryDy=0;fontSize=15;fontColor=default;labelBackgroundColor=default;startArrow=none;" parent="1" source="87" target="10" edge="1">
                    <mxGeometry x="-0.0256" relative="1" as="geometry">
                        <Array as="points"/>
                        <mxPoint as="offset"/>
                    </mxGeometry>
                </mxCell>
                <mxCell id="85" value="&lt;span style=&quot;&quot;&gt;Prendre une&lt;/span&gt;&lt;br style=&quot;&quot;&gt;&lt;span style=&quot;&quot;&gt;pause cigarette&lt;/span&gt;" style="text;html=1;strokeColor=none;fillColor=none;align=center;verticalAlign=middle;whiteSpace=wrap;rounded=0;labelBackgroundColor=none;labelBorderColor=none;fontSize=15;fontColor=default;" parent="1" vertex="1">
                    <mxGeometry x="205" y="405" width="120" height="30" as="geometry"/>
                </mxCell>
                <mxCell id="86" value="" style="edgeStyle=none;html=1;exitX=0;exitY=0.5;exitDx=0;exitDy=0;entryX=1;entryY=0.5;entryDx=0;entryDy=0;fontSize=15;fontColor=default;endArrow=none;" parent="1" source="4" target="85" edge="1">
                    <mxGeometry relative="1" as="geometry">
                        <mxPoint x="334" y="420" as="sourcePoint"/>
                        <mxPoint x="180" y="420" as="targetPoint"/>
                    </mxGeometry>
                </mxCell>
                <mxCell id="87" value="&lt;span style=&quot;&quot;&gt;Prendre une gorgée&lt;/span&gt;" style="text;html=1;strokeColor=none;fillColor=none;align=center;verticalAlign=middle;whiteSpace=wrap;rounded=0;labelBackgroundColor=none;labelBorderColor=none;fontSize=15;fontColor=default;" parent="1" vertex="1">
                    <mxGeometry x="507" y="405" width="120" height="30" as="geometry"/>
                </mxCell>
                <mxCell id="89" value="" style="edgeStyle=none;html=1;exitX=1;exitY=0.5;exitDx=0;exitDy=0;entryX=0;entryY=0.5;entryDx=0;entryDy=0;fontSize=15;fontColor=default;labelBackgroundColor=default;endArrow=none;" parent="1" source="4" target="87" edge="1">
                    <mxGeometry x="-0.0256" relative="1" as="geometry">
                        <mxPoint x="494" y="420" as="sourcePoint"/>
                        <mxPoint x="650" y="420" as="targetPoint"/>
                        <Array as="points"/>
                        <mxPoint as="offset"/>
                    </mxGeometry>
                </mxCell>
            </root>
        </mxGraphModel>
    </diagram>
</mxfile>